<?xml version="1.0" standalone="no"?><!DOCTYPE svg PUBLIC "-//W3C//DTD SVG 1.1//EN" "http://www.w3.org/Graphics/SVG/1.1/DTD/svg11.dtd"><svg t="1570548471671" class="icon" viewBox="0 0 1024 1024" version="1.1" xmlns="http://www.w3.org/2000/svg" p-id="3037" xmlns:xlink="http://www.w3.org/1999/xlink" width="48" height="48"><defs><style type="text/css"></style></defs><path d="M511.999488 160.148283c-196.335424 0-353.444491 157.099857-353.444491 353.440398 0 196.339517 157.108044 353.439375 353.444491 353.439375 31.467657 0 58.906562-27.554538 58.906562-58.907586 0-15.762993-3.909026-27.554538-15.64429-39.285709-7.945965-11.794615-15.764016-23.590254-15.764016-39.234544 0-31.467657 27.49928-58.906562 58.907586-58.906562l70.694015 0c109.995073 0 196.342587-86.406866 196.342587-196.394776C865.442956 301.490264 708.393241 160.148283 511.999488 160.148283M296.043211 513.588681c-31.460494 0-58.900423-27.554538-58.900423-58.906562 0-31.408306 27.438905-58.903493 58.900423-58.903493 31.416492 0 58.906562 27.495187 58.906562 58.903493C354.950796 486.034143 327.460726 513.588681 296.043211 513.588681M413.857359 356.483708c-31.467657 0-58.906562-27.49928-58.906562-58.907586 0-31.407282 27.438905-58.906562 58.906562-58.906562 31.408306 0 58.907586 27.49928 58.907586 58.906562C472.765968 328.984428 445.266688 356.483708 413.857359 356.483708M610.199946 356.483708c-31.416492 0-58.906562-27.49928-58.906562-58.907586 0-31.407282 27.49007-58.906562 58.906562-58.906562 31.408306 0 58.900423 27.49928 58.900423 58.906562C669.100369 328.984428 641.609275 356.483708 610.199946 356.483708M728.006931 513.588681c-31.407282 0-58.906562-27.554538-58.906562-58.906562 0-31.408306 27.49928-58.903493 58.906562-58.903493 31.416492 0 58.906562 27.495187 58.906562 58.903493C786.914517 486.034143 759.423423 513.588681 728.006931 513.588681" p-id="3038"></path></svg>